#!OML:ASF F:\VICON\USERDATA\Patient Classification 1\PLAYGROUND\JustinFriday\JustinFriday.ASF
:FULLY-SPECIFIED
:DEGREES
1925
root 15.2213 18.9202 52.2527 359.728 -156.118 8.76516
lowerback 28.8838 0.605187 8.78786
upperback 7.03514 2.06496 2.56511
thorax -7.67132 0.243538 -2.79774
lowerneck 3.63244 -8.64725 -0.790519
upperneck -24.4332 -11.2924 12.1028
head -7.29342 -7.1746 4.95638
rclavicle 3.08116e-014 -4.9895e-014
rhumerus 18.4172 -2.73879 -76.5433
rradius 60.938
rwrist 12.7217
rhand -14.4123 -19.3866
rfingers 7.12502
rthumb 11.7315 -49.0381
lclavicle 3.08116e-014 -4.9895e-014
lhumerus 46.7718 -23.5532 62.3169
lradius 70.7565
lwrist -11.3611
lhand -32.1392 -21.3581
lfingers 7.12502
lthumb -5.3831 8.55353
rfemur 6.00623 15.0138 26.1827
rtibia -9.54166e-015
rfoot 42.8336 10.38
rtoes 64.1149
lfemur -61.3763 0.842556 -12.5137
ltibia 80.3707
lfoot -34.6565 -21.2213
ltoes 5.93471
1926
root 15.1571 18.9801 52.2248 360.098 -155.708 8.77251
lowerback 29.0378 0.394467 8.73518
upperback 6.94225 1.81953 2.57756
thorax -7.88246 0.123356 -2.67338
lowerneck 3.16934 -8.5811 -1.09178
upperneck -24.5118 -11.2405 12.4076
head -7.19735 -7.17519 5.07291
rclavicle 3.85642e-014 -9.93923e-016
rhumerus 18.0912 -2.93986 -76.6851
rradius 61.3952
rwrist 12.749
rhand -13.6314 -18.6199
rfingers 7.12502
rthumb 12.4845 -48.2269
lclavicle 3.85642e-014 -9.93923e-016
lhumerus 48.6936 -23.7013 61.887
lradius 70.0852
lwrist -12.0027
lhand -31.9656 -21.4374
lfingers 7.12502
lthumb -5.21547 8.47837
rfemur 5.50437 14.0443 25.8821
rtibia 1.59028e-014
rfoot 44.1317 10.883
rtoes 63.8096
lfemur -61.3831 0.738259 -12.8762
ltibia 79.885
lfoot -33.6553 -22.1752
ltoes 7.94227
1927
root 15.1046 19.0479 52.1768 360.558 -156.235 9.11864
lowerback 28.776 0.706969 8.37012
upperback 6.9228 2.11087 2.75146
thorax -7.77641 0.272268 -2.36647
lowerneck 2.92909 -8.53301 -1.2461
upperneck -24.9627 -11.2317 12.5823
head -7.28126 -7.21883 5.17205
rclavicle -3.08116e-014 -2.08724e-014
rhumerus 17.6912 -3.05808 -76.5495
rradius 61.8236
rwrist 12.2019
rhand -12.6386 -17.7468
rfingers 7.12502
rthumb 13.4415 -47.2931
lclavicle -3.08116e-014 -2.08724e-014
lhumerus 50.6188 -23.8762 61.7193
lradius 69.3266
lwrist -12.7259
lhand -31.3748 -21.6607
lfingers 7.12502
lthumb -4.64506 8.26838
rfemur 4.82464 14.0211 26.0101
rtibia -7.95139e-015
rfoot 45.7151 11.0484
rtoes 63.5948
lfemur -61.3979 1.75644 -12.8568
ltibia 79.4852
lfoot -32.7707 -22.9332
ltoes 9.75198
1928
root 15.0454 19.1096 52.1414 360.929 -156.241 9.16965
lowerback 28.6839 0.757005 8.13088
upperback 6.85182 2.12732 2.83087
thorax -7.82928 0.287059 -2.1468
lowerneck 2.91591 -8.51581 -1.54828
upperneck -25.2507 -11.2451 12.7236
head -7.34167 -7.23857 5.28594
rclavicle 4.96962e-015 5.52621e-014
rhumerus 16.874 -2.78642 -76.0226
rradius 62.2507
rwrist 11.7801
rhand -12.5184 -17.0808
rfingers 7.12502
rthumb 13.5574 -46.6194
lclavicle 4.96962e-015 5.52621e-014
lhumerus 52.4099 -24.1223 61.6085
lradius 68.3256
lwrist -13.3401
lhand -30.7773 -22.0015
lfingers 7.12502
lthumb -4.06807 7.93938
rfemur 4.36298 13.4614 25.8763
rtibia -3.02153e-014
rfoot 47.0095 11.4064
rtoes 63.347
lfemur -61.3584 2.09645 -13.2321
ltibia 79.0467
lfoot -32.1536 -22.6582
ltoes 10.7631
1929
root 14.9894 19.1873 52.1101 361.493 -156.228 8.84974
lowerback 28.7403 0.832198 7.51441
upperback 6.6907 2.10428 2.81873
thorax -8.07906 0.289919 -1.80472
lowerneck 2.91038 -8.55409 -1.95015
upperneck -25.3295 -11.279 13.1188
head -7.30615 -7.26969 5.4804
rclavicle 6.65929e-014 -7.7526e-015
rhumerus 16.0389 -2.4303 -75.5631
rradius 62.5902
rwrist 11.8701
rhand -13.5711 -18.0014
rfingers 7.12502
rthumb 12.5426 -47.6049
lclavicle 6.65929e-014 -7.7526e-015
lhumerus 54.075 -24.3203 61.3792
lradius 67.1585
lwrist -13.7934
lhand -30.2072 -22.1289
lfingers 7.12502
lthumb -3.51755 7.82183
rfemur 3.79773 12.8743 25.3535
rtibia -6.36111e-015
rfoot 48.3614 11.7212
rtoes 63.1175
lfemur -61.3145 2.58723 -14.0626
ltibia 78.4964
lfoot -31.5088 -22.6483
ltoes 11.2807
1930
root 14.9407 19.2714 52.0728 361.89 -156.607 8.57116
lowerback 28.8803 1.09037 6.7104
upperback 6.71009 2.21318 2.81448
thorax -8.16259 0.351147 -1.39039
lowerneck 3.14997 -8.39379 -2.39041
upperneck -25.8822 -11.0275 13.7177
head -7.47834 -7.21718 5.79479
rclavicle -2.46493e-014 2.82274e-014
rhumerus 15.6168 -2.20793 -75.3151
rradius 62.8384
rwrist 11.7413
rhand -13.8714 -17.6429
rfingers 7.12502
rthumb 12.2531 -47.264
lclavicle -2.46493e-014 2.82274e-014
lhumerus 55.8466 -24.2809 61.0219
lradius 66.089
lwrist -14.1939
lhand -28.9055 -21.6471
lfingers 7.12502
lthumb -2.26047 8.32068
rfemur 3.39026 12.6565 24.9517
rtibia -3.18055e-014
rfoot 49.7759 12.1354
rtoes 62.8055
lfemur -60.9379 2.57599 -14.4035
ltibia 77.9301
lfoot -31.0811 -21.9208
ltoes 10.63
1931
root 14.8902 19.3591 52.0394 362.141 -156.853 8.8302
lowerback 28.7995 1.22659 6.49092
upperback 6.77124 2.30968 2.93083
thorax -8.0647 0.398199 -1.16627
lowerneck 3.15458 -8.23149 -2.78444
upperneck -26.3172 -10.8095 14.15
head -7.5846 -7.16345 6.02758
rclavicle -2.79292e-014 2.76311e-014
rhumerus 15.3426 -2.11598 -75.1325
rradius 62.9994
rwrist 11.3906
rhand -13.9736 -16.8964
rfingers 7.12502
rthumb 12.1546 -46.5233
lclavicle -2.79292e-014 2.76311e-014
lhumerus 57.6908 -24.1886 60.7212
lradius 64.9511
lwrist -14.4292
lhand -27.1356 -20.9193
lfingers 7.12502
lthumb -0.55105 9.05968
rfemur 2.90193 12.3256 25.1125
rtibia 3.18055e-015
rfoot 51.3485 12.4984
rtoes 62.5015
lfemur -60.7481 3.02183 -14.3453
ltibia 77.3398
lfoot -30.5654 -21.7757
ltoes 10.3683
1932
root 14.831 19.4425 52.0075 362.104 -157.03 9.14805
lowerback 29.0067 1.2777 6.50568
upperback 6.83603 2.37112 3.04125
thorax -8.09166 0.413276 -1.07281
lowerneck 3.40106 -8.41933 -2.23029
upperneck -27.0344 -11.1446 13.7825
head -7.90998 -7.38957 5.91716
rclavicle 1.10325e-014 1.76918e-014
rhumerus 15.0563 -2.11052 -74.9955
rradius 63.0395
rwrist 11.3007
rhand -14.3116 -16.4413
rfingers 7.12502
rthumb 11.8286 -46.0872
lclavicle 1.10325e-014 1.76918e-014
lhumerus 59.4545 -24.1043 60.28
lradius 63.6918
lwrist -14.38
lhand -25.4619 -20.563
lfingers 7.12502
lthumb 1.0655 9.4141
rfemur 2.81974 11.9124 25.4296
rtibia -3.18055e-015
rfoot 52.9062 12.6479
rtoes 62.3689
lfemur -60.223 3.3448 -14.2303
ltibia 76.7417
lfoot -29.7777 -22.3262
ltoes 12.1523
1933
root 14.7718 19.5234 51.9734 362.188 -157.268 9.10852
lowerback 29.2889 1.39038 6.16806
upperback 6.85551 2.4254 3.06381
thorax -8.22447 0.433253 -0.876184
lowerneck 3.227 -8.67619 -1.82525
upperneck -27.1903 -11.5946 13.3417
head -7.95799 -7.61216 5.73199
rclavicle 1.68967e-014 -3.27995e-014
rhumerus 14.5537 -1.92115 -74.7689
rradius 63.1577
rwrist 11.4678
rhand -14.9295 -16.3862
rfingers 7.12502
rthumb 11.2327 -46.0655
lclavicle 1.68967e-014 -3.27995e-014
lhumerus 60.9645 -24.0352 59.4216
lradius 62.5492
lwrist -14.1765
lhand -24.1482 -19.944
lfingers 7.12502
lthumb 2.3342 10.023
rfemur 2.68916 11.5425 25.4472
rtibia -2.70347e-014
rfoot 53.1349 13.7257
rtoes 61.7964
lfemur -59.5403 3.23282 -14.307
ltibia 76.0419
lfoot -28.9778 -22.654
ltoes 14.3049
1934
root 14.7154 19.5842 51.9434 362.785 -157.158 8.9962
lowerback 28.9912 1.36782 5.86738
upperback 6.71146 2.34391 3.0722
thorax -8.26724 0.417649 -0.665956
lowerneck 3.07255 -8.80465 -1.90902
upperneck -27.0756 -11.8059 13.2786
head -7.87234 -7.6952 5.7108
rclavicle -3.67752e-014 -5.96354e-016
rhumerus 13.9832 -1.83554 -74.5834
rradius 63.2759
rwrist 11.2777
rhand -14.5335 -15.7944
rfingers 7.12502
rthumb 11.6147 -45.4525
lclavicle -3.67752e-014 -5.96354e-016
lhumerus 62.5332 -24.0948 59.8073
lradius 60.3409
lwrist -14.8494
lhand -22.9049 -19.344
lfingers 7.12502
lthumb 3.53496 10.6065
rfemur 1.92318 10.8639 25.314
rtibia 1.59028e-015
rfoot 53.2967 15.0129
rtoes 60.9489
lfemur -59.557 2.29917 -14.2636
ltibia 75.3586
lfoot -28.6571 -22.1434
ltoes 14.5634
1935
root 14.6664 19.6762 51.8985 362.901 -157.851 9.10151
lowerback 29.0685 1.75456 5.30846
upperback 6.70365 2.68894 3.18037
thorax -8.33751 0.584655 -0.345199
lowerneck 3.16732 -8.80176 -1.93693
upperneck -27.3385 -11.8527 13.1715
head -7.98183 -7.72356 5.71345
rclavicle -8.74653e-015 5.96354e-015
rhumerus 13.6153 -1.81824 -74.4501
rradius 62.7915
rwrist 12.3142
rhand -15.3683 -15.3847
rfingers 7.12502
rthumb 10.8095 -45.0865
lclavicle -8.74653e-015 5.96354e-015
lhumerus 63.972 -24.2194 59.8684
lradius 58.2419
lwrist -15.1116
lhand -21.3636 -19.086
lfingers 7.12502
lthumb 5.02329 10.8345
rfemur 1.80208 10.9649 25.5711
rtibia 3.97569e-014
rfoot 54.3707 15.5558
rtoes 60.5959
lfemur -58.7606 2.54397 -14.0566
ltibia 74.6392
lfoot -28.498 -22.4567
ltoes 15.5885
1936
root 14.6063 19.7275 51.8674 363.055 -158.13 9.18413
lowerback 29.0226 1.92274 5.11526
upperback 6.783 2.83008 3.26197
thorax -8.2359 0.65033 -0.190629
lowerneck 3.04864 -8.78796 -1.77522
upperneck -27.7603 -11.9367 12.9271
head -8.13077 -7.79086 5.64494
rclavicle -6.56983e-014 -5.28767e-014
rhumerus 13.237 -1.6699 -74.1027
rradius 62.9281
rwrist 11.5146
rhand -15.3374 -15.5265
rfingers 7.12502
rthumb 10.8393 -45.2268
lclavicle -6.56983e-014 -5.28767e-014
lhumerus 65.2147 -24.2249 59.7082
lradius 56.7245
lwrist -15.1125
lhand -19.4497 -19.0005
lfingers 7.12502
lthumb 6.87107 10.868
rfemur 1.67233 10.6583 25.6228
rtibia -4.77083e-015
rfoot 55.0912 14.5107
rtoes 60.7774
lfemur -58.2832 2.26837 -13.9734
ltibia 74.0905
lfoot -28.6145 -22.1122
ltoes 15.9914
1937
root 14.5528 19.7678 51.8254 363.419 -158.676 9.22444
lowerback 28.5986 2.26167 4.65455
upperback 6.87776 3.10522 3.3547
thorax -7.94888 0.794969 0.0890077
lowerneck 2.75543 -8.8825 -1.75791
upperneck -27.8381 -12.1261 12.8645
head -8.09634 -7.8921 5.61607
rclavicle 1.30204e-014 7.11649e-014
rhumerus 12.9855 -1.54545 -73.819
rradius 62.7625
rwrist 11.1244
rhand -16.1886 -15.591
rfingers 7.12502
rthumb 10.0182 -45.3325
lclavicle 1.30204e-014 7.11649e-014
lhumerus 66.4037 -24.2187 59.4687
lradius 55.3316
lwrist -14.818
lhand -17.4855 -18.5271
lfingers 7.12502
lthumb 8.76681 11.2708
rfemur -0.535218 10.5424 25.6935
rtibia 3.79192
rfoot 53.5258 14.1234
rtoes 61.0359
lfemur -57.9411 2.52477 -14.0035
ltibia 73.6041
lfoot -29.576 -20.9842
ltoes 14.127
1938
root 14.5015 19.8236 51.7835 363.688 -159.301 9.56479
lowerback 28.3124 2.57872 4.41739
upperback 6.84439 3.45376 3.5025
thorax -7.86498 0.969022 0.276579
lowerneck 2.51703 -8.92471 -1.87612
upperneck -27.6093 -12.2012 12.8281
head -7.96273 -7.90197 5.58629
rclavicle 1.78906e-014 7.55382e-015
rhumerus 12.6575 -1.44272 -73.5553
rradius 62.364
rwrist 10.9846
rhand -16.8705 -14.7921
rfingers 7.12502
rthumb 9.36025 -44.5643
lclavicle 1.78906e-014 7.55382e-015
lhumerus 67.3715 -24.325 59.1469
lradius 53.8467
lwrist -14.4891
lhand -15.335 -17.8573
lfingers 7.12502
lthumb 10.8416 11.8429
rfemur -3.23067 10.5071 26.0967
rtibia 8.37198
rfoot 51.0367 13.6373
rtoes 61.0727
lfemur -57.6568 3.16769 -13.7927
ltibia 73.0523
lfoot -30.1593 -20.675
ltoes 13.0205
1939
root 14.4554 19.8824 51.7414 364.005 -160.235 9.94886
lowerback 28.0019 3.04803 4.03065
upperback 6.79375 3.963 3.66507
thorax -7.80315 1.22213 0.514143
lowerneck 2.29646 -8.9445 -1.92362
upperneck -27.6661 -12.2784 12.7821
head -7.93691 -7.94143 5.57108
rclavicle 6.95746e-016 -3.57812e-014
rhumerus 12.3258 -1.3203 -73.3121
rradius 62.0638
rwrist 10.8164
rhand -17.1173 -14.3921
rfingers 7.12502
rthumb 9.12211 -44.1748
lclavicle 6.95746e-016 -3.57812e-014
lhumerus 68.2004 -24.4821 58.8181
lradius 52.3195
lwrist -14.4175
lhand -12.9437 -17.1078
lfingers 7.12502
lthumb 13.1475 12.4577
rfemur -5.29961 10.8215 26.4359
rtibia 11.7281
rfoot 49.2507 12.3301
rtoes 61.2391
lfemur -57.3855 3.92803 -13.4466
ltibia 72.4582
lfoot -30.7887 -20.2557
ltoes 11.7445
